<svg xmlns="http://www.w3.org/2000/svg" xmlns:xlink="http://www.w3.org/1999/xlink" width="500" zoomAndPan="magnify" viewBox="0 0 375 374.999991" height="500" preserveAspectRatio="xMidYMid meet" version="1.0"><defs><filter x="0%" y="0%" width="100%" height="100%" id="c4c974a5b2"><feColorMatrix values="0 0 0 0 1 0 0 0 0 1 0 0 0 0 1 0 0 0 1 0" color-interpolation-filters="sRGB"/></filter><g/><clipPath id="18beed6794"><path d="M 177 114 L 274 114 L 274 268.566406 L 177 268.566406 Z M 177 114 " clip-rule="nonzero"/></clipPath><clipPath id="c958476c50"><path d="M 106.957031 191.75 L 212.746094 191.75 L 212.746094 231.933594 L 106.957031 231.933594 Z M 106.957031 191.75 " clip-rule="nonzero"/></clipPath><clipPath id="9860cdf3cf"><path d="M 124.207031 191.75 L 195.40625 191.75 C 204.933594 191.75 212.65625 199.476562 212.65625 209 L 212.65625 214.683594 C 212.65625 224.210938 204.933594 231.933594 195.40625 231.933594 L 124.207031 231.933594 C 114.679688 231.933594 106.957031 224.210938 106.957031 214.683594 L 106.957031 209 C 106.957031 199.476562 114.679688 191.75 124.207031 191.75 Z M 124.207031 191.75 " clip-rule="nonzero"/></clipPath><clipPath id="0a7fb6d0ae"><path d="M 0.957031 0.75 L 106.746094 0.75 L 106.746094 40.933594 L 0.957031 40.933594 Z M 0.957031 0.75 " clip-rule="nonzero"/></clipPath><clipPath id="6b6e5e3163"><path d="M 18.207031 0.75 L 89.40625 0.75 C 98.933594 0.75 106.65625 8.476562 106.65625 18 L 106.65625 23.683594 C 106.65625 33.210938 98.933594 40.933594 89.40625 40.933594 L 18.207031 40.933594 C 8.679688 40.933594 0.957031 33.210938 0.957031 23.683594 L 0.957031 18 C 0.957031 8.476562 8.679688 0.75 18.207031 0.75 Z M 18.207031 0.75 " clip-rule="nonzero"/></clipPath><clipPath id="13584fe7ac"><rect x="0" width="107" y="0" height="41"/></clipPath><clipPath id="57c7402ac5"><path d="M 0 0.40625 L 352.738281 0.40625 L 352.738281 214.15625 L 0 214.15625 Z M 0 0.40625 " clip-rule="nonzero"/></clipPath><clipPath id="174d621670"><path d="M 0 0.40625 L 352.738281 0.40625 L 352.738281 214.15625 L 0 214.15625 Z M 0 0.40625 " clip-rule="nonzero"/></clipPath><clipPath id="2e5c05dd5d"><path d="M 9.847656 0.410156 L 336.707031 0.410156 L 336.707031 213.261719 L 9.847656 213.261719 Z M 9.847656 0.410156 " clip-rule="nonzero"/></clipPath><linearGradient x1="-70.460989" gradientTransform="matrix(0.891763, 0, 0, 0.891344, 72.681972, 79.650364)" y1="30.5" x2="296.069987" gradientUnits="userSpaceOnUse" y2="30.5" id="ba9aacd41b"><stop stop-opacity="1" stop-color="rgb(0%, 59.21936%, 69.799805%)" offset="0"/><stop stop-opacity="1" stop-color="rgb(0%, 59.21936%, 69.799805%)" offset="0.125"/><stop stop-opacity="1" stop-color="rgb(0%, 59.21936%, 69.799805%)" offset="0.1875"/><stop stop-opacity="1" stop-color="rgb(0%, 59.21936%, 69.799805%)" offset="0.21875"/><stop stop-opacity="1" stop-color="rgb(0%, 59.21936%, 69.799805%)" offset="0.234375"/><stop stop-opacity="1" stop-color="rgb(0%, 59.21936%, 69.799805%)" offset="0.242188"/><stop stop-opacity="1" stop-color="rgb(0.357056%, 59.407043%, 69.540405%)" offset="0.246094"/><stop stop-opacity="1" stop-color="rgb(0.715637%, 59.594727%, 69.282532%)" offset="0.25"/><stop stop-opacity="1" stop-color="rgb(1.089478%, 59.790039%, 69.010925%)" offset="0.253906"/><stop stop-opacity="1" stop-color="rgb(1.464844%, 59.986877%, 68.740845%)" offset="0.257812"/><stop stop-opacity="1" stop-color="rgb(1.838684%, 60.18219%, 68.469238%)" offset="0.261719"/><stop stop-opacity="1" stop-color="rgb(2.21405%, 60.379028%, 68.199158%)" offset="0.265625"/><stop stop-opacity="1" stop-color="rgb(2.587891%, 60.575867%, 67.929077%)" offset="0.269531"/><stop stop-opacity="1" stop-color="rgb(2.963257%, 60.772705%, 67.658997%)" offset="0.273438"/><stop stop-opacity="1" stop-color="rgb(3.338623%, 60.968018%, 67.38739%)" offset="0.277344"/><stop stop-opacity="1" stop-color="rgb(3.713989%, 61.164856%, 67.11731%)" offset="0.28125"/><stop stop-opacity="1" stop-color="rgb(4.08783%, 61.360168%, 66.845703%)" offset="0.285156"/><stop stop-opacity="1" stop-color="rgb(4.463196%, 61.557007%, 66.575623%)" offset="0.289062"/><stop stop-opacity="1" stop-color="rgb(4.837036%, 61.753845%, 66.304016%)" offset="0.292969"/><stop stop-opacity="1" stop-color="rgb(5.212402%, 61.950684%, 66.033936%)" offset="0.296875"/><stop stop-opacity="1" stop-color="rgb(5.587769%, 62.145996%, 65.762329%)" offset="0.300781"/><stop stop-opacity="1" stop-color="rgb(5.963135%, 62.342834%, 65.492249%)" offset="0.304688"/><stop stop-opacity="1" stop-color="rgb(6.336975%, 62.538147%, 65.222168%)" offset="0.308594"/><stop stop-opacity="1" stop-color="rgb(6.712341%, 62.734985%, 64.952087%)" offset="0.3125"/><stop stop-opacity="1" stop-color="rgb(7.086182%, 62.931824%, 64.680481%)" offset="0.316406"/><stop stop-opacity="1" stop-color="rgb(7.461548%, 63.128662%, 64.4104%)" offset="0.320312"/><stop stop-opacity="1" stop-color="rgb(7.836914%, 63.323975%, 64.138794%)" offset="0.324219"/><stop stop-opacity="1" stop-color="rgb(8.21228%, 63.520813%, 63.868713%)" offset="0.328125"/><stop stop-opacity="1" stop-color="rgb(8.586121%, 63.716125%, 63.597107%)" offset="0.332031"/><stop stop-opacity="1" stop-color="rgb(8.961487%, 63.912964%, 63.327026%)" offset="0.335938"/><stop stop-opacity="1" stop-color="rgb(9.335327%, 64.109802%, 63.056946%)" offset="0.339844"/><stop stop-opacity="1" stop-color="rgb(9.710693%, 64.306641%, 62.786865%)" offset="0.34375"/><stop stop-opacity="1" stop-color="rgb(10.084534%, 64.501953%, 62.515259%)" offset="0.347656"/><stop stop-opacity="1" stop-color="rgb(10.4599%, 64.698792%, 62.245178%)" offset="0.351562"/><stop stop-opacity="1" stop-color="rgb(10.835266%, 64.894104%, 61.973572%)" offset="0.355469"/><stop stop-opacity="1" stop-color="rgb(11.210632%, 65.090942%, 61.703491%)" offset="0.359375"/><stop stop-opacity="1" stop-color="rgb(11.584473%, 65.287781%, 61.431885%)" offset="0.363281"/><stop stop-opacity="1" stop-color="rgb(11.959839%, 65.484619%, 61.161804%)" offset="0.367188"/><stop stop-opacity="1" stop-color="rgb(12.333679%, 65.679932%, 60.890198%)" offset="0.371094"/><stop stop-opacity="1" stop-color="rgb(12.709045%, 65.87677%, 60.620117%)" offset="0.375"/><stop stop-opacity="1" stop-color="rgb(13.084412%, 66.072083%, 60.350037%)" offset="0.378906"/><stop stop-opacity="1" stop-color="rgb(13.459778%, 66.268921%, 60.079956%)" offset="0.382812"/><stop stop-opacity="1" stop-color="rgb(13.833618%, 66.465759%, 59.80835%)" offset="0.386719"/><stop stop-opacity="1" stop-color="rgb(14.208984%, 66.662598%, 59.538269%)" offset="0.390625"/><stop stop-opacity="1" stop-color="rgb(14.582825%, 66.85791%, 59.266663%)" offset="0.394531"/><stop stop-opacity="1" stop-color="rgb(14.958191%, 67.054749%, 58.996582%)" offset="0.398438"/><stop stop-opacity="1" stop-color="rgb(15.333557%, 67.250061%, 58.724976%)" offset="0.402344"/><stop stop-opacity="1" stop-color="rgb(15.708923%, 67.446899%, 58.454895%)" offset="0.40625"/><stop stop-opacity="1" stop-color="rgb(16.082764%, 67.643738%, 58.184814%)" offset="0.410156"/><stop stop-opacity="1" stop-color="rgb(16.45813%, 67.840576%, 57.914734%)" offset="0.414062"/><stop stop-opacity="1" stop-color="rgb(16.83197%, 68.035889%, 57.643127%)" offset="0.417969"/><stop stop-opacity="1" stop-color="rgb(17.207336%, 68.232727%, 57.373047%)" offset="0.421875"/><stop stop-opacity="1" stop-color="rgb(17.581177%, 68.42804%, 57.10144%)" offset="0.425781"/><stop stop-opacity="1" stop-color="rgb(17.956543%, 68.624878%, 56.83136%)" offset="0.429688"/><stop stop-opacity="1" stop-color="rgb(18.331909%, 68.821716%, 56.559753%)" offset="0.433594"/><stop stop-opacity="1" stop-color="rgb(18.707275%, 69.018555%, 56.289673%)" offset="0.4375"/><stop stop-opacity="1" stop-color="rgb(19.081116%, 69.213867%, 56.019592%)" offset="0.441406"/><stop stop-opacity="1" stop-color="rgb(19.456482%, 69.410706%, 55.749512%)" offset="0.445312"/><stop stop-opacity="1" stop-color="rgb(19.830322%, 69.606018%, 55.477905%)" offset="0.449219"/><stop stop-opacity="1" stop-color="rgb(20.205688%, 69.802856%, 55.207825%)" offset="0.453125"/><stop stop-opacity="1" stop-color="rgb(20.581055%, 69.999695%, 54.936218%)" offset="0.457031"/><stop stop-opacity="1" stop-color="rgb(20.956421%, 70.196533%, 54.666138%)" offset="0.460938"/><stop stop-opacity="1" stop-color="rgb(21.330261%, 70.391846%, 54.394531%)" offset="0.464844"/><stop stop-opacity="1" stop-color="rgb(21.705627%, 70.588684%, 54.124451%)" offset="0.46875"/><stop stop-opacity="1" stop-color="rgb(22.079468%, 70.783997%, 53.852844%)" offset="0.472656"/><stop stop-opacity="1" stop-color="rgb(22.454834%, 70.980835%, 53.582764%)" offset="0.476562"/><stop stop-opacity="1" stop-color="rgb(22.828674%, 71.177673%, 53.312683%)" offset="0.480469"/><stop stop-opacity="1" stop-color="rgb(23.204041%, 71.374512%, 53.042603%)" offset="0.484375"/><stop stop-opacity="1" stop-color="rgb(23.579407%, 71.569824%, 52.770996%)" offset="0.488281"/><stop stop-opacity="1" stop-color="rgb(23.954773%, 71.766663%, 52.500916%)" offset="0.492188"/><stop stop-opacity="1" stop-color="rgb(24.328613%, 71.961975%, 52.229309%)" offset="0.496094"/><stop stop-opacity="1" stop-color="rgb(24.703979%, 72.158813%, 51.959229%)" offset="0.5"/><stop stop-opacity="1" stop-color="rgb(25.07782%, 72.355652%, 51.687622%)" offset="0.503906"/><stop stop-opacity="1" stop-color="rgb(25.453186%, 72.55249%, 51.417542%)" offset="0.507812"/><stop stop-opacity="1" stop-color="rgb(25.828552%, 72.747803%, 51.147461%)" offset="0.511719"/><stop stop-opacity="1" stop-color="rgb(26.203918%, 72.944641%, 50.87738%)" offset="0.515625"/><stop stop-opacity="1" stop-color="rgb(26.577759%, 73.139954%, 50.605774%)" offset="0.519531"/><stop stop-opacity="1" stop-color="rgb(26.953125%, 73.336792%, 50.335693%)" offset="0.523438"/><stop stop-opacity="1" stop-color="rgb(27.326965%, 73.53363%, 50.064087%)" offset="0.527344"/><stop stop-opacity="1" stop-color="rgb(27.702332%, 73.730469%, 49.794006%)" offset="0.53125"/><stop stop-opacity="1" stop-color="rgb(28.077698%, 73.925781%, 49.5224%)" offset="0.535156"/><stop stop-opacity="1" stop-color="rgb(28.453064%, 74.12262%, 49.252319%)" offset="0.539062"/><stop stop-opacity="1" stop-color="rgb(28.826904%, 74.317932%, 48.980713%)" offset="0.542969"/><stop stop-opacity="1" stop-color="rgb(29.202271%, 74.514771%, 48.710632%)" offset="0.546875"/><stop stop-opacity="1" stop-color="rgb(29.576111%, 74.711609%, 48.440552%)" offset="0.550781"/><stop stop-opacity="1" stop-color="rgb(29.951477%, 74.908447%, 48.170471%)" offset="0.554688"/><stop stop-opacity="1" stop-color="rgb(30.325317%, 75.10376%, 47.898865%)" offset="0.558594"/><stop stop-opacity="1" stop-color="rgb(30.700684%, 75.300598%, 47.628784%)" offset="0.5625"/><stop stop-opacity="1" stop-color="rgb(31.07605%, 75.495911%, 47.357178%)" offset="0.566406"/><stop stop-opacity="1" stop-color="rgb(31.451416%, 75.692749%, 47.087097%)" offset="0.570312"/><stop stop-opacity="1" stop-color="rgb(31.825256%, 75.889587%, 46.815491%)" offset="0.574219"/><stop stop-opacity="1" stop-color="rgb(32.200623%, 76.086426%, 46.54541%)" offset="0.578125"/><stop stop-opacity="1" stop-color="rgb(32.574463%, 76.281738%, 46.27533%)" offset="0.582031"/><stop stop-opacity="1" stop-color="rgb(32.949829%, 76.478577%, 46.005249%)" offset="0.585938"/><stop stop-opacity="1" stop-color="rgb(33.325195%, 76.673889%, 45.733643%)" offset="0.589844"/><stop stop-opacity="1" stop-color="rgb(33.700562%, 76.870728%, 45.463562%)" offset="0.59375"/><stop stop-opacity="1" stop-color="rgb(34.074402%, 77.067566%, 45.191956%)" offset="0.597656"/><stop stop-opacity="1" stop-color="rgb(34.449768%, 77.264404%, 44.921875%)" offset="0.601562"/><stop stop-opacity="1" stop-color="rgb(34.823608%, 77.459717%, 44.650269%)" offset="0.605469"/><stop stop-opacity="1" stop-color="rgb(35.198975%, 77.656555%, 44.380188%)" offset="0.609375"/><stop stop-opacity="1" stop-color="rgb(35.574341%, 77.851868%, 44.108582%)" offset="0.613281"/><stop stop-opacity="1" stop-color="rgb(35.949707%, 78.048706%, 43.838501%)" offset="0.617188"/><stop stop-opacity="1" stop-color="rgb(36.323547%, 78.245544%, 43.56842%)" offset="0.621094"/><stop stop-opacity="1" stop-color="rgb(36.698914%, 78.442383%, 43.29834%)" offset="0.625"/><stop stop-opacity="1" stop-color="rgb(37.072754%, 78.637695%, 43.026733%)" offset="0.628906"/><stop stop-opacity="1" stop-color="rgb(37.44812%, 78.834534%, 42.756653%)" offset="0.632812"/><stop stop-opacity="1" stop-color="rgb(37.82196%, 79.029846%, 42.485046%)" offset="0.636719"/><stop stop-opacity="1" stop-color="rgb(38.197327%, 79.226685%, 42.214966%)" offset="0.640625"/><stop stop-opacity="1" stop-color="rgb(38.572693%, 79.423523%, 41.943359%)" offset="0.644531"/><stop stop-opacity="1" stop-color="rgb(38.948059%, 79.620361%, 41.673279%)" offset="0.648438"/><stop stop-opacity="1" stop-color="rgb(39.321899%, 79.815674%, 41.403198%)" offset="0.652344"/><stop stop-opacity="1" stop-color="rgb(39.697266%, 80.012512%, 41.133118%)" offset="0.65625"/><stop stop-opacity="1" stop-color="rgb(40.071106%, 80.207825%, 40.861511%)" offset="0.660156"/><stop stop-opacity="1" stop-color="rgb(40.446472%, 80.404663%, 40.591431%)" offset="0.664062"/><stop stop-opacity="1" stop-color="rgb(40.821838%, 80.601501%, 40.319824%)" offset="0.667969"/><stop stop-opacity="1" stop-color="rgb(41.197205%, 80.79834%, 40.049744%)" offset="0.671875"/><stop stop-opacity="1" stop-color="rgb(41.571045%, 80.993652%, 39.778137%)" offset="0.675781"/><stop stop-opacity="1" stop-color="rgb(41.946411%, 81.190491%, 39.508057%)" offset="0.679688"/><stop stop-opacity="1" stop-color="rgb(42.320251%, 81.385803%, 39.23645%)" offset="0.683594"/><stop stop-opacity="1" stop-color="rgb(42.695618%, 81.582642%, 38.96637%)" offset="0.6875"/><stop stop-opacity="1" stop-color="rgb(43.070984%, 81.77948%, 38.696289%)" offset="0.691406"/><stop stop-opacity="1" stop-color="rgb(43.44635%, 81.976318%, 38.426208%)" offset="0.695312"/><stop stop-opacity="1" stop-color="rgb(43.82019%, 82.171631%, 38.154602%)" offset="0.699219"/><stop stop-opacity="1" stop-color="rgb(44.195557%, 82.368469%, 37.884521%)" offset="0.703125"/><stop stop-opacity="1" stop-color="rgb(44.569397%, 82.563782%, 37.612915%)" offset="0.707031"/><stop stop-opacity="1" stop-color="rgb(44.944763%, 82.76062%, 37.342834%)" offset="0.710938"/><stop stop-opacity="1" stop-color="rgb(45.318604%, 82.957458%, 37.071228%)" offset="0.714844"/><stop stop-opacity="1" stop-color="rgb(45.69397%, 83.154297%, 36.801147%)" offset="0.71875"/><stop stop-opacity="1" stop-color="rgb(46.069336%, 83.349609%, 36.531067%)" offset="0.722656"/><stop stop-opacity="1" stop-color="rgb(46.444702%, 83.546448%, 36.260986%)" offset="0.726562"/><stop stop-opacity="1" stop-color="rgb(46.818542%, 83.74176%, 35.98938%)" offset="0.730469"/><stop stop-opacity="1" stop-color="rgb(47.193909%, 83.938599%, 35.719299%)" offset="0.734375"/><stop stop-opacity="1" stop-color="rgb(47.567749%, 84.135437%, 35.447693%)" offset="0.738281"/><stop stop-opacity="1" stop-color="rgb(47.943115%, 84.332275%, 35.177612%)" offset="0.742188"/><stop stop-opacity="1" stop-color="rgb(48.318481%, 84.527588%, 34.906006%)" offset="0.746094"/><stop stop-opacity="1" stop-color="rgb(48.693848%, 84.724426%, 34.635925%)" offset="0.75"/><stop stop-opacity="1" stop-color="rgb(49.050903%, 84.912109%, 34.376526%)" offset="0.753906"/><stop stop-opacity="1" stop-color="rgb(49.409485%, 85.099792%, 34.118652%)" offset="0.757812"/><stop stop-opacity="1" stop-color="rgb(49.409485%, 85.099792%, 34.118652%)" offset="0.765625"/><stop stop-opacity="1" stop-color="rgb(49.409485%, 85.099792%, 34.118652%)" offset="0.78125"/><stop stop-opacity="1" stop-color="rgb(49.409485%, 85.099792%, 34.118652%)" offset="0.8125"/><stop stop-opacity="1" stop-color="rgb(49.409485%, 85.099792%, 34.118652%)" offset="0.875"/><stop stop-opacity="1" stop-color="rgb(49.409485%, 85.099792%, 34.118652%)" offset="1"/></linearGradient><clipPath id="d5ebf90b14"><rect x="0" width="353" y="0" height="215"/></clipPath><clipPath id="e58fd3a2f8"><path d="M 0 0.40625 L 352.738281 0.40625 L 352.738281 214.15625 L 0 214.15625 Z M 0 0.40625 " clip-rule="nonzero"/></clipPath><clipPath id="e8428c96cd"><rect x="0" width="353" y="0" height="215"/></clipPath><clipPath id="d6445ded8d"><rect x="0" width="353" y="0" height="215"/></clipPath><mask id="5186caf5eb"><g filter="url(#c4c974a5b2)"><g transform="matrix(1, 0, 0, 1, 0, 0)"><g clip-path="url(#d6445ded8d)"><g clip-path="url(#e58fd3a2f8)"><g transform="matrix(1, 0, 0, 1, 0, 0)"><g clip-path="url(#e8428c96cd)"><g fill="#000000" fill-opacity="1"><g transform="translate(88.611977, 119.750842)"><g><path d="M 5.890625 0.359375 C 4.835938 0.359375 4.023438 0.0664062 3.453125 -0.515625 C 2.890625 -1.097656 2.609375 -1.914062 2.609375 -2.96875 L 2.609375 -24.9375 C 2.609375 -26.019531 2.910156 -26.84375 3.515625 -27.40625 C 4.128906 -27.976562 4.988281 -28.265625 6.09375 -28.265625 C 7.019531 -28.265625 7.753906 -28.082031 8.296875 -27.71875 C 8.835938 -27.363281 9.332031 -26.78125 9.78125 -25.96875 L 18.28125 -10.6875 L 16.90625 -10.6875 L 25.375 -25.96875 C 25.84375 -26.78125 26.347656 -27.363281 26.890625 -27.71875 C 27.429688 -28.082031 28.164062 -28.265625 29.09375 -28.265625 C 30.144531 -28.265625 30.953125 -27.976562 31.515625 -27.40625 C 32.085938 -26.84375 32.375 -26.019531 32.375 -24.9375 L 32.375 -2.96875 C 32.375 -1.914062 32.097656 -1.097656 31.546875 -0.515625 C 30.992188 0.0664062 30.175781 0.359375 29.09375 0.359375 C 28.03125 0.359375 27.21875 0.0664062 26.65625 -0.515625 C 26.09375 -1.097656 25.8125 -1.914062 25.8125 -2.96875 L 25.8125 -16.578125 L 26.640625 -16.578125 L 20.265625 -5.5 C 19.890625 -4.914062 19.5 -4.476562 19.09375 -4.1875 C 18.6875 -3.90625 18.140625 -3.765625 17.453125 -3.765625 C 16.796875 -3.765625 16.253906 -3.90625 15.828125 -4.1875 C 15.410156 -4.476562 15.03125 -4.914062 14.6875 -5.5 L 8.265625 -16.625 L 9.1875 -16.625 L 9.1875 -2.96875 C 9.1875 -1.914062 8.90625 -1.097656 8.34375 -0.515625 C 7.789062 0.0664062 6.972656 0.359375 5.890625 0.359375 Z M 5.890625 0.359375 "/></g></g></g><g fill="#000000" fill-opacity="1"><g transform="translate(121.420743, 119.750842)"><g><path d="M 6.328125 0 C 5.085938 0 4.144531 -0.320312 3.5 -0.96875 C 2.851562 -1.613281 2.53125 -2.546875 2.53125 -3.765625 L 2.53125 -24.140625 C 2.53125 -25.359375 2.851562 -26.289062 3.5 -26.9375 C 4.144531 -27.582031 5.085938 -27.90625 6.328125 -27.90625 L 19.75 -27.90625 C 20.695312 -27.90625 21.40625 -27.664062 21.875 -27.1875 C 22.351562 -26.71875 22.59375 -26.03125 22.59375 -25.125 C 22.59375 -24.207031 22.351562 -23.503906 21.875 -23.015625 C 21.40625 -22.523438 20.695312 -22.28125 19.75 -22.28125 L 9.5 -22.28125 L 9.5 -16.984375 L 18.875 -16.984375 C 19.800781 -16.984375 20.507812 -16.742188 21 -16.265625 C 21.488281 -15.785156 21.734375 -15.085938 21.734375 -14.171875 C 21.734375 -13.242188 21.488281 -12.539062 21 -12.0625 C 20.507812 -11.59375 19.800781 -11.359375 18.875 -11.359375 L 9.5 -11.359375 L 9.5 -5.625 L 19.75 -5.625 C 20.695312 -5.625 21.40625 -5.378906 21.875 -4.890625 C 22.351562 -4.398438 22.59375 -3.707031 22.59375 -2.8125 C 22.59375 -1.882812 22.351562 -1.179688 21.875 -0.703125 C 21.40625 -0.234375 20.695312 0 19.75 0 Z M 6.328125 0 "/></g></g></g><g fill="#000000" fill-opacity="1"><g transform="translate(143.543723, 119.750842)"><g><path d="M 6.328125 0 C 5.085938 0 4.144531 -0.320312 3.5 -0.96875 C 2.851562 -1.613281 2.53125 -2.546875 2.53125 -3.765625 L 2.53125 -24.140625 C 2.53125 -25.359375 2.851562 -26.289062 3.5 -26.9375 C 4.144531 -27.582031 5.085938 -27.90625 6.328125 -27.90625 L 14.09375 -27.90625 C 18.945312 -27.90625 22.695312 -26.691406 25.34375 -24.265625 C 28 -21.835938 29.328125 -18.40625 29.328125 -13.96875 C 29.328125 -11.75 28.984375 -9.773438 28.296875 -8.046875 C 27.609375 -6.328125 26.617188 -4.863281 25.328125 -3.65625 C 24.035156 -2.457031 22.445312 -1.546875 20.5625 -0.921875 C 18.675781 -0.304688 16.519531 0 14.09375 0 Z M 9.8125 -5.890625 L 13.609375 -5.890625 C 15.015625 -5.890625 16.222656 -6.0625 17.234375 -6.40625 C 18.253906 -6.75 19.097656 -7.25 19.765625 -7.90625 C 20.441406 -8.570312 20.941406 -9.40625 21.265625 -10.40625 C 21.597656 -11.40625 21.765625 -12.59375 21.765625 -13.96875 C 21.765625 -16.71875 21.09375 -18.742188 19.75 -20.046875 C 18.40625 -21.347656 16.359375 -22 13.609375 -22 L 9.8125 -22 Z M 9.8125 -5.890625 "/></g></g></g><g fill="#000000" fill-opacity="1"><g transform="translate(172.47395, 119.750842)"><g><path d="M 6.171875 0.359375 C 5.015625 0.359375 4.117188 0.0351562 3.484375 -0.609375 C 2.847656 -1.253906 2.53125 -2.171875 2.53125 -3.359375 L 2.53125 -24.53125 C 2.53125 -25.75 2.847656 -26.675781 3.484375 -27.3125 C 4.117188 -27.945312 5.015625 -28.265625 6.171875 -28.265625 C 7.359375 -28.265625 8.257812 -27.945312 8.875 -27.3125 C 9.5 -26.675781 9.8125 -25.75 9.8125 -24.53125 L 9.8125 -3.359375 C 9.8125 -2.171875 9.507812 -1.253906 8.90625 -0.609375 C 8.300781 0.0351562 7.390625 0.359375 6.171875 0.359375 Z M 6.171875 0.359375 "/></g></g></g><g fill="#000000" fill-opacity="1"><g transform="translate(182.644667, 119.750842)"><g><path d="M 16.625 0.4375 C 13.539062 0.4375 10.890625 -0.15625 8.671875 -1.34375 C 6.453125 -2.53125 4.753906 -4.207031 3.578125 -6.375 C 2.410156 -8.539062 1.828125 -11.070312 1.828125 -13.96875 C 1.828125 -16.132812 2.160156 -18.097656 2.828125 -19.859375 C 3.503906 -21.628906 4.476562 -23.144531 5.75 -24.40625 C 7.03125 -25.675781 8.585938 -26.648438 10.421875 -27.328125 C 12.253906 -28.003906 14.320312 -28.34375 16.625 -28.34375 C 17.832031 -28.34375 19.085938 -28.203125 20.390625 -27.921875 C 21.703125 -27.640625 22.859375 -27.222656 23.859375 -26.671875 C 24.597656 -26.273438 25.113281 -25.773438 25.40625 -25.171875 C 25.695312 -24.566406 25.796875 -23.945312 25.703125 -23.3125 C 25.609375 -22.675781 25.375 -22.109375 25 -21.609375 C 24.632812 -21.109375 24.160156 -20.769531 23.578125 -20.59375 C 23.003906 -20.425781 22.375 -20.515625 21.6875 -20.859375 C 20.894531 -21.222656 20.109375 -21.503906 19.328125 -21.703125 C 18.554688 -21.898438 17.75 -22 16.90625 -22 C 15.269531 -22 13.898438 -21.6875 12.796875 -21.0625 C 11.703125 -20.445312 10.878906 -19.546875 10.328125 -18.359375 C 9.773438 -17.171875 9.5 -15.707031 9.5 -13.96875 C 9.5 -12.226562 9.773438 -10.753906 10.328125 -9.546875 C 10.878906 -8.347656 11.703125 -7.4375 12.796875 -6.8125 C 13.898438 -6.195312 15.269531 -5.890625 16.90625 -5.890625 C 17.582031 -5.890625 18.316406 -5.972656 19.109375 -6.140625 C 19.898438 -6.316406 20.679688 -6.59375 21.453125 -6.96875 C 22.242188 -7.3125 22.945312 -7.398438 23.5625 -7.234375 C 24.1875 -7.078125 24.6875 -6.757812 25.0625 -6.28125 C 25.445312 -5.8125 25.691406 -5.265625 25.796875 -4.640625 C 25.910156 -4.023438 25.828125 -3.414062 25.546875 -2.8125 C 25.265625 -2.207031 24.785156 -1.71875 24.109375 -1.34375 C 23.179688 -0.789062 22.035156 -0.351562 20.671875 -0.03125 C 19.316406 0.28125 17.96875 0.4375 16.625 0.4375 Z M 16.625 0.4375 "/></g></g></g><g fill="#000000" fill-opacity="1"><g transform="translate(207.696339, 119.750842)"><g><path d="M 3.84375 0.359375 C 3.019531 0.359375 2.332031 0.164062 1.78125 -0.21875 C 1.226562 -0.601562 0.882812 -1.128906 0.75 -1.796875 C 0.613281 -2.472656 0.734375 -3.234375 1.109375 -4.078125 L 10.96875 -25.296875 C 11.4375 -26.316406 12.019531 -27.066406 12.71875 -27.546875 C 13.414062 -28.023438 14.21875 -28.265625 15.125 -28.265625 C 16.019531 -28.265625 16.800781 -28.023438 17.46875 -27.546875 C 18.144531 -27.066406 18.734375 -26.316406 19.234375 -25.296875 L 29.09375 -4.078125 C 29.507812 -3.234375 29.65625 -2.46875 29.53125 -1.78125 C 29.414062 -1.09375 29.085938 -0.5625 28.546875 -0.1875 C 28.015625 0.175781 27.351562 0.359375 26.5625 0.359375 C 25.5 0.359375 24.679688 0.125 24.109375 -0.34375 C 23.546875 -0.820312 23.039062 -1.59375 22.59375 -2.65625 L 20.46875 -7.671875 L 23.234375 -5.65625 L 6.921875 -5.65625 L 9.734375 -7.671875 L 7.59375 -2.65625 C 7.125 -1.59375 6.632812 -0.820312 6.125 -0.34375 C 5.625 0.125 4.863281 0.359375 3.84375 0.359375 Z M 15.046875 -20.296875 L 10.453125 -9.34375 L 9.34375 -11.234375 L 20.859375 -11.234375 L 19.75 -9.34375 L 15.125 -20.296875 Z M 15.046875 -20.296875 "/></g></g></g><g fill="#000000" fill-opacity="1"><g transform="translate(235.71629, 119.750842)"><g><path d="M 6.21875 0 C 5.050781 0 4.144531 -0.320312 3.5 -0.96875 C 2.851562 -1.613281 2.53125 -2.519531 2.53125 -3.6875 L 2.53125 -24.265625 C 2.53125 -25.453125 2.847656 -26.359375 3.484375 -26.984375 C 4.117188 -27.617188 5.015625 -27.9375 6.171875 -27.9375 C 7.359375 -27.9375 8.257812 -27.617188 8.875 -26.984375 C 9.5 -26.359375 9.8125 -25.453125 9.8125 -24.265625 L 9.8125 -6.0625 L 19.46875 -6.0625 C 20.46875 -6.0625 21.238281 -5.800781 21.78125 -5.28125 C 22.320312 -4.769531 22.59375 -4.023438 22.59375 -3.046875 C 22.59375 -2.066406 22.320312 -1.3125 21.78125 -0.78125 C 21.238281 -0.257812 20.46875 0 19.46875 0 Z M 6.21875 0 "/></g></g></g></g></g></g></g></g></g></mask><clipPath id="2824ffeba4"><path d="M 9.847656 0.410156 L 336.707031 0.410156 L 336.707031 213.261719 L 9.847656 213.261719 Z M 9.847656 0.410156 " clip-rule="nonzero"/></clipPath><clipPath id="592c488939"><rect x="0" width="353" y="0" height="215"/></clipPath><clipPath id="24b5f784ad"><rect x="0" width="353" y="0" height="215"/></clipPath><clipPath id="001642560c"><rect x="0" width="353" y="0" height="215"/></clipPath></defs><g clip-path="url(#18beed6794)"><path fill="#31edae" d="M 195.6875 118.632812 C 200.378906 118.632812 206.757812 117.167969 212.1875 116.878906 C 228.898438 115.984375 246.035156 118.867188 255.832031 131.914062 C 268.445312 148.726562 262.289062 175.605469 253.039062 192.640625 C 242.917969 211.269531 231.351562 222.378906 216.101562 233.8125 C 212.125 236.789062 210.253906 238.984375 206.71875 239.4375 C 203.640625 236.332031 199.367188 234.410156 194.648438 234.410156 C 185.257812 234.410156 177.640625 242.023438 177.640625 251.417969 C 177.640625 260.808594 185.257812 268.425781 194.648438 268.425781 C 203.976562 268.425781 211.550781 260.902344 211.644531 251.585938 C 212.554688 251.054688 213.789062 250.351562 215.554688 249.3125 C 219.855469 246.792969 223.960938 244.296875 227.457031 241.6875 L 238.175781 232.875 C 267.863281 207.671875 289.273438 155.558594 257.742188 126.496094 C 236.121094 106.566406 203.082031 118.441406 195.6875 118.632812 Z M 195.6875 118.632812 " fill-opacity="1" fill-rule="evenodd"/></g><path fill="#11676a" d="M 188.582031 231.265625 C 180.097656 226.199219 175.707031 226.042969 164.183594 217.273438 C 138.898438 198.070312 124.414062 163.898438 144.253906 138.238281 C 159.492188 118.515625 193.492188 131.757812 199.792969 139.824219 C 200.71875 141.019531 201.316406 142.4375 201.742188 143.984375 C 201.054688 145.828125 200.679688 147.816406 200.679688 149.894531 C 200.679688 159.289062 208.292969 166.902344 217.683594 166.902344 C 227.078125 166.902344 234.691406 159.289062 234.691406 149.894531 C 234.691406 140.5 227.078125 132.886719 217.683594 132.886719 C 216.179688 132.886719 214.710938 133.082031 213.320312 133.457031 C 211.980469 132.820312 210.214844 131.875 207.757812 130.445312 C 199.367188 125.558594 191.195312 120.945312 179.957031 119.179688 C 167.09375 117.152344 157.957031 118.621094 148.175781 124.039062 C 111.1875 144.582031 122.242188 186.363281 149.851562 211.398438 C 157.804688 218.625 178.695312 229.238281 188.582031 231.265625 Z M 188.582031 231.265625 " fill-opacity="1" fill-rule="evenodd"/><path fill="#11676a" d="M 168.964844 163.339844 C 150.34375 163.339844 153.789062 159.484375 153.917969 178.683594 L 168.949219 179.011719 L 168.964844 194.042969 L 184.582031 194.015625 L 184.582031 179.269531 L 199.601562 178.945312 L 199.636719 163.394531 L 184.734375 163.316406 L 184.566406 148.308594 L 168.964844 148.308594 Z M 168.964844 163.339844 " fill-opacity="1" fill-rule="evenodd"/><g clip-path="url(#c958476c50)"><g clip-path="url(#9860cdf3cf)"><g transform="matrix(1, 0, 0, 1, 106, 191)"><g clip-path="url(#13584fe7ac)"><g clip-path="url(#0a7fb6d0ae)"><g clip-path="url(#6b6e5e3163)"><path fill="#ffffff" d="M 0.957031 0.75 L 106.589844 0.75 L 106.589844 40.933594 L 0.957031 40.933594 Z M 0.957031 0.75 " fill-opacity="1" fill-rule="nonzero"/></g></g></g></g></g></g><g transform="matrix(1, 0, 0, 1, 0, 101)"><g clip-path="url(#001642560c)"><g fill="#ffffff" fill-opacity="1"><g transform="translate(88.611977, 119.750842)"><g><path d="M 5.898438 5.207031 C 4.808594 5.207031 3.796875 5.039062 2.863281 4.703125 C 1.757812 4.308594 0.800781 3.699219 -0.00390625 2.875 C -0.792969 2.066406 -1.378906 1.117188 -1.757812 0.0273438 C -2.078125 -0.898438 -2.238281 -1.894531 -2.238281 -2.96875 L -2.238281 -24.933594 C -2.238281 -26.050781 -2.0625 -27.085938 -1.710938 -28.039062 C -1.292969 -29.171875 -0.652344 -30.144531 0.210938 -30.953125 C 1.03125 -31.71875 1.996094 -32.285156 3.097656 -32.652344 C 4.019531 -32.957031 5.019531 -33.109375 6.09375 -33.109375 C 7.988281 -33.109375 9.609375 -32.664062 10.960938 -31.777344 C 12.171875 -30.976562 13.195312 -29.816406 14.027344 -28.296875 L 26.539062 -5.835938 L 8.667969 -5.835938 L 21.128906 -28.316406 C 22.019531 -29.847656 23.050781 -31 24.226562 -31.777344 C 25.578125 -32.664062 27.199219 -33.109375 29.089844 -33.109375 C 30.167969 -33.109375 31.167969 -32.949219 32.089844 -32.625 C 33.195312 -32.238281 34.148438 -31.644531 34.953125 -30.835938 C 35.765625 -30.027344 36.363281 -29.0625 36.75 -27.941406 C 37.066406 -27.019531 37.226562 -26.015625 37.226562 -24.933594 L 37.226562 -2.96875 C 37.226562 -1.90625 37.070312 -0.921875 36.761719 -0.0078125 C 36.394531 1.078125 35.824219 2.027344 35.050781 2.832031 C 34.242188 3.679688 33.273438 4.304688 32.136719 4.707031 C 31.203125 5.039062 30.1875 5.207031 29.089844 5.207031 C 28.003906 5.207031 26.992188 5.039062 26.058594 4.703125 C 24.949219 4.308594 23.992188 3.699219 23.1875 2.875 C 22.398438 2.066406 21.816406 1.117188 21.4375 0.0273438 C 21.117188 -0.898438 20.957031 -1.894531 20.957031 -2.96875 L 20.957031 -21.433594 L 35.019531 -21.433594 L 24.414062 -2.988281 L 24.355469 -2.898438 C 23.648438 -1.78125 22.828125 -0.898438 21.902344 -0.242188 C 20.652344 0.644531 19.171875 1.089844 17.453125 1.089844 C 15.789062 1.089844 14.335938 0.660156 13.085938 -0.199219 C 12.074219 -0.894531 11.214844 -1.839844 10.507812 -3.035156 L -0.121094 -21.472656 L 14.03125 -21.472656 L 14.03125 -2.96875 C 14.03125 -1.90625 13.878906 -0.921875 13.566406 -0.0078125 C 13.199219 1.078125 12.628906 2.027344 11.859375 2.832031 C 11.050781 3.679688 10.078125 4.304688 8.945312 4.707031 C 8.011719 5.039062 6.996094 5.207031 5.898438 5.207031 Z M 5.898438 -4.492188 C 5.917969 -4.492188 5.933594 -4.492188 5.945312 -4.496094 C 5.941406 -4.496094 5.9375 -4.492188 5.925781 -4.492188 C 5.859375 -4.480469 5.785156 -4.460938 5.699219 -4.433594 C 5.382812 -4.320312 5.097656 -4.128906 4.84375 -3.863281 C 4.625 -3.636719 4.472656 -3.386719 4.382812 -3.117188 C 4.355469 -3.046875 4.339844 -2.984375 4.332031 -2.929688 C 4.332031 -2.925781 4.332031 -2.921875 4.332031 -2.921875 C 4.332031 -2.933594 4.332031 -2.949219 4.332031 -2.96875 L 4.332031 -16.625 L 9.183594 -16.625 L 9.183594 -11.773438 L 8.273438 -11.773438 L 8.273438 -16.625 L 12.472656 -19.046875 L 18.859375 -7.96875 C 18.875 -7.945312 18.886719 -7.925781 18.894531 -7.910156 C 18.890625 -7.917969 18.882812 -7.925781 18.871094 -7.941406 C 18.796875 -8.023438 18.699219 -8.109375 18.578125 -8.191406 C 18.332031 -8.359375 18.078125 -8.480469 17.8125 -8.550781 C 17.667969 -8.589844 17.550781 -8.609375 17.453125 -8.609375 C 17.375 -8.609375 17.269531 -8.59375 17.136719 -8.554688 C 16.84375 -8.480469 16.5625 -8.34375 16.289062 -8.148438 C 16.199219 -8.085938 16.128906 -8.023438 16.082031 -7.972656 C 16.097656 -7.992188 16.128906 -8.039062 16.171875 -8.105469 L 20.265625 -5.5 L 16.0625 -7.917969 L 22.433594 -19 L 26.636719 -16.582031 L 26.636719 -11.734375 L 25.804688 -11.734375 L 25.804688 -16.582031 L 30.65625 -16.582031 L 30.65625 -2.96875 C 30.65625 -2.953125 30.65625 -2.9375 30.65625 -2.929688 C 30.65625 -2.929688 30.65625 -2.9375 30.652344 -2.949219 C 30.644531 -3.007812 30.625 -3.074219 30.601562 -3.152344 C 30.503906 -3.425781 30.347656 -3.675781 30.125 -3.902344 C 29.886719 -4.148438 29.621094 -4.320312 29.324219 -4.425781 C 29.238281 -4.457031 29.160156 -4.480469 29.089844 -4.488281 L 29.089844 -4.492188 C 29.109375 -4.492188 29.125 -4.492188 29.136719 -4.496094 C 29.136719 -4.496094 29.128906 -4.492188 29.121094 -4.492188 C 29.054688 -4.480469 28.980469 -4.460938 28.894531 -4.433594 C 28.578125 -4.320312 28.292969 -4.128906 28.035156 -3.863281 C 27.820312 -3.636719 27.664062 -3.386719 27.574219 -3.117188 C 27.550781 -3.046875 27.535156 -2.984375 27.527344 -2.929688 C 27.527344 -2.925781 27.523438 -2.921875 27.523438 -2.921875 C 27.527344 -2.933594 27.527344 -2.949219 27.527344 -2.96875 L 27.527344 -24.933594 C 27.527344 -24.957031 27.527344 -24.976562 27.523438 -24.992188 L 27.527344 -24.984375 C 27.535156 -24.929688 27.550781 -24.863281 27.578125 -24.789062 C 27.679688 -24.492188 27.851562 -24.222656 28.097656 -23.980469 C 28.335938 -23.742188 28.597656 -23.570312 28.890625 -23.46875 C 28.972656 -23.441406 29.042969 -23.421875 29.109375 -23.410156 C 29.117188 -23.410156 29.125 -23.410156 29.128906 -23.410156 C 29.121094 -23.410156 29.109375 -23.410156 29.089844 -23.410156 C 29.035156 -23.410156 28.988281 -23.410156 28.953125 -23.40625 L 28.949219 -23.40625 C 28.964844 -23.40625 28.976562 -23.410156 28.996094 -23.414062 C 29.175781 -23.457031 29.363281 -23.542969 29.5625 -23.675781 C 29.664062 -23.742188 29.734375 -23.800781 29.773438 -23.84375 C 29.71875 -23.78125 29.664062 -23.703125 29.613281 -23.613281 L 21.140625 -8.335938 L 16.898438 -10.6875 L 16.898438 -15.535156 L 18.285156 -15.535156 L 18.285156 -10.6875 L 14.050781 -8.328125 L 5.523438 -23.632812 C 5.453125 -23.757812 5.398438 -23.84375 5.359375 -23.894531 C 5.414062 -23.828125 5.503906 -23.753906 5.625 -23.675781 C 5.824219 -23.542969 6.011719 -23.457031 6.191406 -23.414062 C 6.207031 -23.410156 6.222656 -23.40625 6.234375 -23.40625 C 6.199219 -23.410156 6.152344 -23.410156 6.09375 -23.410156 C 6.050781 -23.410156 6.019531 -23.410156 6.003906 -23.40625 C 6.039062 -23.410156 6.085938 -23.425781 6.144531 -23.441406 C 6.390625 -23.523438 6.617188 -23.664062 6.835938 -23.867188 C 7.09375 -24.105469 7.277344 -24.382812 7.390625 -24.691406 C 7.425781 -24.78125 7.445312 -24.863281 7.457031 -24.9375 L 7.460938 -24.933594 L 7.460938 -2.96875 C 7.460938 -2.953125 7.460938 -2.9375 7.460938 -2.929688 C 7.460938 -2.929688 7.460938 -2.9375 7.460938 -2.949219 C 7.449219 -3.007812 7.433594 -3.074219 7.40625 -3.152344 C 7.3125 -3.425781 7.152344 -3.675781 6.929688 -3.902344 C 6.695312 -4.148438 6.425781 -4.320312 6.128906 -4.425781 C 6.042969 -4.457031 5.964844 -4.480469 5.898438 -4.488281 Z M 5.898438 -4.492188 "/></g></g></g><g fill="#ffffff" fill-opacity="1"><g transform="translate(121.420743, 119.750842)"><g><path d="M 6.332031 4.847656 C 5.175781 4.847656 4.105469 4.679688 3.125 4.34375 C 1.941406 3.941406 0.925781 3.3125 0.0742188 2.460938 C -0.773438 1.613281 -1.398438 0.605469 -1.804688 -0.558594 C -2.144531 -1.539062 -2.316406 -2.605469 -2.316406 -3.761719 L -2.316406 -24.144531 C -2.316406 -25.296875 -2.144531 -26.363281 -1.804688 -27.34375 C -1.398438 -28.507812 -0.773438 -29.515625 0.0742188 -30.363281 C 0.925781 -31.214844 1.941406 -31.84375 3.125 -32.25 C 4.105469 -32.585938 5.175781 -32.753906 6.332031 -32.753906 L 19.75 -32.753906 C 20.75 -32.753906 21.675781 -32.609375 22.53125 -32.324219 C 23.609375 -31.964844 24.539062 -31.398438 25.316406 -30.621094 C 26.078125 -29.855469 26.640625 -28.953125 27.003906 -27.90625 C 27.300781 -27.050781 27.449219 -26.125 27.449219 -25.132812 C 27.449219 -24.140625 27.304688 -23.21875 27.019531 -22.363281 C 26.664062 -21.316406 26.113281 -20.40625 25.363281 -19.632812 C 24.585938 -18.835938 23.65625 -18.25 22.570312 -17.878906 C 21.703125 -17.582031 20.761719 -17.433594 19.75 -17.433594 L 9.5 -17.433594 L 9.5 -22.28125 L 14.347656 -22.28125 L 14.347656 -16.980469 L 9.5 -16.980469 L 9.5 -21.828125 L 18.878906 -21.828125 C 19.871094 -21.828125 20.792969 -21.683594 21.648438 -21.398438 C 22.699219 -21.042969 23.609375 -20.492188 24.378906 -19.742188 C 25.167969 -18.972656 25.75 -18.054688 26.125 -16.984375 C 26.425781 -16.117188 26.578125 -15.179688 26.578125 -14.167969 C 26.578125 -13.160156 26.425781 -12.222656 26.125 -11.355469 C 25.75 -10.285156 25.167969 -9.363281 24.378906 -8.597656 C 23.609375 -7.847656 22.699219 -7.292969 21.648438 -6.941406 C 20.792969 -6.652344 19.871094 -6.511719 18.878906 -6.511719 L 9.5 -6.511719 L 9.5 -11.359375 L 14.347656 -11.359375 L 14.347656 -5.621094 L 9.5 -5.621094 L 9.5 -10.46875 L 19.75 -10.46875 C 20.761719 -10.46875 21.703125 -10.320312 22.570312 -10.023438 C 23.65625 -9.652344 24.585938 -9.066406 25.363281 -8.269531 C 26.105469 -7.507812 26.65625 -6.609375 27.007812 -5.574219 C 27.300781 -4.71875 27.449219 -3.796875 27.449219 -2.808594 C 27.449219 -1.8125 27.304688 -0.890625 27.011719 -0.0351562 C 26.652344 1.03125 26.085938 1.945312 25.316406 2.714844 C 24.539062 3.492188 23.609375 4.0625 22.53125 4.421875 C 21.675781 4.707031 20.75 4.847656 19.75 4.847656 Z M 6.332031 -4.847656 L 19.75 -4.847656 C 19.761719 -4.847656 19.769531 -4.847656 19.773438 -4.851562 C 19.761719 -4.847656 19.75 -4.847656 19.730469 -4.84375 C 19.652344 -4.832031 19.5625 -4.8125 19.464844 -4.777344 C 19.09375 -4.65625 18.761719 -4.445312 18.457031 -4.140625 C 18.164062 -3.847656 17.953125 -3.515625 17.828125 -3.152344 C 17.777344 -2.996094 17.75 -2.882812 17.75 -2.808594 C 17.75 -2.71875 17.777344 -2.59375 17.835938 -2.429688 C 17.949219 -2.089844 18.144531 -1.78125 18.410156 -1.507812 C 18.710938 -1.195312 19.050781 -0.976562 19.425781 -0.847656 C 19.578125 -0.796875 19.6875 -0.769531 19.75 -0.769531 L 4.648438 -0.769531 L 4.648438 -16.207031 L 18.878906 -16.207031 C 18.8125 -16.207031 18.703125 -16.183594 18.554688 -16.132812 C 18.210938 -16.019531 17.898438 -15.824219 17.613281 -15.546875 C 17.3125 -15.253906 17.097656 -14.921875 16.96875 -14.550781 C 16.910156 -14.382812 16.878906 -14.253906 16.878906 -14.167969 C 16.878906 -14.082031 16.910156 -13.957031 16.96875 -13.789062 C 17.097656 -13.417969 17.3125 -13.085938 17.613281 -12.792969 C 17.898438 -12.515625 18.210938 -12.320312 18.554688 -12.207031 C 18.703125 -12.15625 18.8125 -12.128906 18.878906 -12.128906 L 4.648438 -12.128906 L 4.648438 -27.132812 L 19.75 -27.132812 C 19.6875 -27.132812 19.578125 -27.105469 19.425781 -27.054688 C 19.050781 -26.925781 18.710938 -26.707031 18.410156 -26.398438 C 18.136719 -26.113281 17.941406 -25.800781 17.824219 -25.457031 C 17.773438 -25.308594 17.75 -25.199219 17.75 -25.132812 C 17.75 -25.039062 17.78125 -24.90625 17.839844 -24.734375 C 17.964844 -24.375 18.171875 -24.050781 18.457031 -23.761719 C 18.761719 -23.460938 19.09375 -23.246094 19.464844 -23.125 C 19.5625 -23.09375 19.652344 -23.070312 19.730469 -23.058594 C 19.75 -23.054688 19.761719 -23.054688 19.773438 -23.054688 C 19.769531 -23.054688 19.761719 -23.054688 19.75 -23.054688 L 6.332031 -23.054688 C 6.261719 -23.054688 6.207031 -23.050781 6.167969 -23.046875 C 6.1875 -23.046875 6.222656 -23.058594 6.265625 -23.074219 C 6.503906 -23.15625 6.726562 -23.296875 6.933594 -23.503906 C 7.132812 -23.707031 7.273438 -23.925781 7.355469 -24.160156 C 7.375 -24.210938 7.382812 -24.25 7.390625 -24.277344 C 7.382812 -24.25 7.382812 -24.203125 7.382812 -24.144531 L 7.382812 -3.761719 C 7.382812 -3.699219 7.382812 -3.652344 7.390625 -3.625 C 7.382812 -3.652344 7.375 -3.695312 7.355469 -3.742188 C 7.273438 -3.980469 7.132812 -4.199219 6.933594 -4.398438 C 6.726562 -4.605469 6.503906 -4.75 6.265625 -4.828125 C 6.222656 -4.84375 6.1875 -4.855469 6.167969 -4.859375 C 6.207031 -4.851562 6.261719 -4.847656 6.332031 -4.847656 Z M 6.332031 -4.847656 "/></g></g></g><g fill="#ffffff" fill-opacity="1"><g transform="translate(143.543723, 119.750842)"><g><path d="M 6.332031 4.847656 C 5.175781 4.847656 4.105469 4.679688 3.125 4.34375 C 1.941406 3.941406 0.925781 3.3125 0.0742188 2.460938 C -0.773438 1.613281 -1.398438 0.605469 -1.804688 -0.558594 C -2.144531 -1.539062 -2.316406 -2.605469 -2.316406 -3.761719 L -2.316406 -24.144531 C -2.316406 -25.296875 -2.144531 -26.363281 -1.804688 -27.34375 C -1.398438 -28.507812 -0.773438 -29.515625 0.0742188 -30.363281 C 0.925781 -31.214844 1.941406 -31.84375 3.125 -32.25 C 4.105469 -32.585938 5.175781 -32.753906 6.332031 -32.753906 L 14.089844 -32.753906 C 20.203125 -32.753906 25.046875 -31.113281 28.625 -27.839844 C 30.511719 -26.113281 31.921875 -24.039062 32.855469 -21.617188 C 33.738281 -19.339844 34.179688 -16.792969 34.179688 -13.972656 C 34.179688 -11.136719 33.71875 -8.566406 32.804688 -6.265625 C 31.851562 -3.859375 30.457031 -1.804688 28.628906 -0.109375 C 26.820312 1.574219 24.632812 2.835938 22.074219 3.675781 C 19.695312 4.457031 17.035156 4.847656 14.089844 4.847656 Z M 6.332031 -4.847656 L 14.089844 -4.847656 C 16 -4.847656 17.652344 -5.078125 19.046875 -5.539062 C 20.261719 -5.9375 21.257812 -6.496094 22.03125 -7.214844 C 22.789062 -7.917969 23.375 -8.792969 23.792969 -9.84375 C 24.25 -10.996094 24.480469 -12.375 24.480469 -13.972656 C 24.480469 -15.585938 24.257812 -16.96875 23.808594 -18.121094 C 23.421875 -19.128906 22.84375 -19.984375 22.074219 -20.683594 C 20.351562 -22.265625 17.6875 -23.054688 14.089844 -23.054688 L 6.332031 -23.054688 C 6.261719 -23.054688 6.207031 -23.050781 6.167969 -23.046875 C 6.1875 -23.046875 6.222656 -23.058594 6.265625 -23.074219 C 6.503906 -23.15625 6.726562 -23.296875 6.933594 -23.503906 C 7.132812 -23.707031 7.273438 -23.925781 7.355469 -24.160156 C 7.375 -24.210938 7.382812 -24.25 7.390625 -24.277344 C 7.382812 -24.25 7.382812 -24.203125 7.382812 -24.144531 L 7.382812 -3.761719 C 7.382812 -3.699219 7.382812 -3.652344 7.390625 -3.625 C 7.382812 -3.652344 7.375 -3.695312 7.355469 -3.742188 C 7.273438 -3.980469 7.132812 -4.199219 6.933594 -4.398438 C 6.726562 -4.605469 6.503906 -4.75 6.265625 -4.828125 C 6.222656 -4.84375 6.1875 -4.855469 6.167969 -4.859375 C 6.207031 -4.851562 6.261719 -4.847656 6.332031 -4.847656 Z M 9.816406 -10.746094 L 13.617188 -10.746094 C 14.484375 -10.746094 15.171875 -10.832031 15.683594 -11.007812 C 16 -11.113281 16.230469 -11.238281 16.375 -11.378906 C 16.484375 -11.488281 16.582031 -11.667969 16.667969 -11.925781 C 16.835938 -12.433594 16.917969 -13.117188 16.917969 -13.972656 C 16.917969 -14.820312 16.832031 -15.503906 16.660156 -16.019531 C 16.574219 -16.28125 16.476562 -16.464844 16.371094 -16.566406 C 16.246094 -16.691406 16.03125 -16.800781 15.730469 -16.898438 C 15.1875 -17.070312 14.484375 -17.15625 13.617188 -17.15625 L 9.816406 -17.15625 L 9.816406 -22.007812 L 14.664062 -22.007812 L 14.664062 -5.898438 L 9.816406 -5.898438 Z M 4.964844 -1.046875 L 4.964844 -26.855469 L 13.617188 -26.855469 C 17.671875 -26.855469 20.839844 -25.746094 23.128906 -23.527344 C 25.453125 -21.269531 26.617188 -18.082031 26.617188 -13.972656 C 26.617188 -12.082031 26.371094 -10.390625 25.878906 -8.894531 C 25.304688 -7.144531 24.398438 -5.664062 23.164062 -4.453125 C 21.964844 -3.277344 20.503906 -2.398438 18.789062 -1.816406 C 17.269531 -1.304688 15.542969 -1.046875 13.617188 -1.046875 Z M 4.964844 -1.046875 "/></g></g></g><g fill="#ffffff" fill-opacity="1"><g transform="translate(172.47395, 119.750842)"><g><path d="M 6.175781 5.207031 C 5.027344 5.207031 3.964844 5.027344 2.988281 4.675781 C 1.84375 4.265625 0.851562 3.632812 0.0195312 2.78125 C -0.808594 1.9375 -1.417969 0.941406 -1.8125 -0.203125 C -2.148438 -1.175781 -2.316406 -2.226562 -2.316406 -3.363281 L -2.316406 -24.539062 C -2.316406 -25.683594 -2.148438 -26.742188 -1.816406 -27.714844 C -1.414062 -28.886719 -0.792969 -29.894531 0.0546875 -30.738281 C 0.890625 -31.574219 1.875 -32.191406 3.015625 -32.59375 C 3.988281 -32.9375 5.039062 -33.109375 6.175781 -33.109375 C 7.316406 -33.109375 8.375 -32.9375 9.347656 -32.597656 C 10.511719 -32.191406 11.511719 -31.558594 12.351562 -30.703125 C 13.179688 -29.855469 13.789062 -28.851562 14.179688 -27.683594 C 14.503906 -26.722656 14.664062 -25.675781 14.664062 -24.539062 L 14.664062 -3.363281 C 14.664062 -0.898438 13.921875 1.125 12.441406 2.707031 C 11.601562 3.601562 10.585938 4.261719 9.390625 4.683594 C 8.410156 5.03125 7.339844 5.207031 6.175781 5.207031 Z M 6.175781 -4.492188 C 6.234375 -4.492188 6.273438 -4.496094 6.296875 -4.5 C 6.257812 -4.492188 6.207031 -4.476562 6.144531 -4.457031 C 5.859375 -4.355469 5.601562 -4.179688 5.371094 -3.933594 C 5.183594 -3.734375 5.054688 -3.527344 4.984375 -3.308594 C 4.96875 -3.265625 4.960938 -3.238281 4.957031 -3.214844 C 4.964844 -3.25 4.964844 -3.300781 4.964844 -3.363281 L 4.964844 -24.539062 C 4.964844 -24.609375 4.964844 -24.664062 4.957031 -24.699219 C 4.960938 -24.675781 4.96875 -24.644531 4.984375 -24.597656 C 5.066406 -24.359375 5.210938 -24.128906 5.421875 -23.917969 C 5.640625 -23.695312 5.878906 -23.535156 6.140625 -23.445312 C 6.199219 -23.425781 6.246094 -23.410156 6.285156 -23.40625 C 6.265625 -23.410156 6.226562 -23.410156 6.175781 -23.410156 C 6.132812 -23.410156 6.101562 -23.410156 6.089844 -23.40625 C 6.132812 -23.414062 6.183594 -23.425781 6.246094 -23.449219 C 6.488281 -23.535156 6.710938 -23.679688 6.910156 -23.878906 C 7.125 -24.09375 7.273438 -24.324219 7.359375 -24.570312 C 7.375 -24.621094 7.386719 -24.65625 7.390625 -24.683594 C 7.386719 -24.652344 7.382812 -24.605469 7.382812 -24.539062 L 7.382812 -3.363281 C 7.382812 -3.308594 7.382812 -3.269531 7.386719 -3.246094 C 7.382812 -3.277344 7.371094 -3.316406 7.355469 -3.367188 C 7.273438 -3.597656 7.140625 -3.8125 6.945312 -4.007812 C 6.746094 -4.210938 6.523438 -4.359375 6.273438 -4.449219 C 6.207031 -4.472656 6.152344 -4.488281 6.105469 -4.496094 C 6.113281 -4.492188 6.136719 -4.492188 6.175781 -4.492188 Z M 6.175781 -4.492188 "/></g></g></g><g fill="#ffffff" fill-opacity="1"><g transform="translate(182.644667, 119.750842)"><g><path d="M 16.625 5.285156 C 12.726562 5.285156 9.308594 4.5 6.378906 2.929688 C 3.308594 1.285156 0.957031 -1.042969 -0.679688 -4.058594 C -2.246094 -6.945312 -3.027344 -10.25 -3.027344 -13.972656 C -3.027344 -16.730469 -2.585938 -19.269531 -1.703125 -21.59375 C -0.78125 -24.015625 0.570312 -26.109375 2.347656 -27.867188 C 4.128906 -29.628906 6.265625 -30.96875 8.757812 -31.882812 C 11.132812 -32.753906 13.753906 -33.1875 16.625 -33.1875 C 18.175781 -33.1875 19.773438 -33.015625 21.410156 -32.667969 C 23.1875 -32.289062 24.789062 -31.707031 26.210938 -30.921875 C 27.847656 -30.046875 29.039062 -28.828125 29.785156 -27.265625 C 30.5 -25.769531 30.738281 -24.21875 30.503906 -22.613281 C 30.296875 -21.179688 29.765625 -19.886719 28.917969 -18.734375 C 27.902344 -17.359375 26.585938 -16.429688 24.964844 -15.949219 C 24.007812 -15.667969 23.03125 -15.59375 22.027344 -15.730469 C 21.179688 -15.847656 20.34375 -16.109375 19.519531 -16.519531 L 21.691406 -20.859375 L 19.640625 -16.464844 C 19.121094 -16.703125 18.625 -16.886719 18.140625 -17.007812 C 17.753906 -17.109375 17.339844 -17.15625 16.898438 -17.15625 C 16.117188 -17.15625 15.546875 -17.054688 15.195312 -16.855469 C 14.996094 -16.746094 14.839844 -16.566406 14.726562 -16.3125 C 14.472656 -15.777344 14.347656 -14.996094 14.347656 -13.972656 C 14.347656 -12.941406 14.476562 -12.144531 14.734375 -11.589844 C 14.851562 -11.335938 15.003906 -11.15625 15.195312 -11.046875 C 15.546875 -10.847656 16.117188 -10.746094 16.898438 -10.746094 C 17.238281 -10.746094 17.636719 -10.796875 18.089844 -10.894531 C 18.507812 -10.984375 18.925781 -11.128906 19.34375 -11.332031 L 19.433594 -11.375 L 19.523438 -11.414062 C 21.328125 -12.199219 23.078125 -12.375 24.769531 -11.941406 C 26.433594 -11.515625 27.792969 -10.648438 28.851562 -9.335938 C 29.761719 -8.203125 30.339844 -6.914062 30.585938 -5.464844 C 30.859375 -3.863281 30.648438 -2.308594 29.960938 -0.796875 C 29.230469 0.800781 28.046875 2.039062 26.402344 2.925781 L 24.105469 -1.34375 L 26.597656 2.8125 C 25.238281 3.628906 23.632812 4.25 21.78125 4.683594 C 20.058594 5.085938 18.339844 5.285156 16.625 5.285156 Z M 16.625 -4.414062 C 17.597656 -4.414062 18.582031 -4.53125 19.578125 -4.761719 C 20.445312 -4.964844 21.121094 -5.210938 21.609375 -5.503906 L 21.707031 -5.5625 L 21.804688 -5.617188 C 21.71875 -5.570312 21.628906 -5.496094 21.527344 -5.394531 C 21.367188 -5.230469 21.234375 -5.042969 21.136719 -4.824219 C 21 -4.527344 20.964844 -4.195312 21.023438 -3.835938 C 21.0625 -3.625 21.152344 -3.429688 21.296875 -3.25 C 21.589844 -2.886719 21.945312 -2.652344 22.371094 -2.542969 C 22.664062 -2.46875 22.941406 -2.449219 23.203125 -2.484375 C 23.273438 -2.492188 23.332031 -2.503906 23.382812 -2.519531 L 23.378906 -2.515625 L 21.453125 -6.964844 L 23.558594 -2.597656 C 22.449219 -2.0625 21.308594 -1.667969 20.144531 -1.414062 C 19.015625 -1.171875 17.933594 -1.046875 16.898438 -1.046875 C 14.414062 -1.046875 12.25 -1.566406 10.414062 -2.609375 C 8.414062 -3.742188 6.917969 -5.378906 5.925781 -7.527344 C 5.074219 -9.371094 4.648438 -11.519531 4.648438 -13.972656 C 4.648438 -16.429688 5.078125 -18.578125 5.9375 -20.414062 C 6.925781 -22.539062 8.417969 -24.167969 10.414062 -25.296875 C 12.25 -26.335938 14.414062 -26.855469 16.898438 -26.855469 C 18.148438 -26.855469 19.359375 -26.707031 20.53125 -26.410156 C 21.601562 -26.136719 22.671875 -25.75 23.742188 -25.253906 L 23.800781 -25.226562 L 23.859375 -25.195312 C 23.722656 -25.265625 23.546875 -25.3125 23.328125 -25.34375 C 22.960938 -25.390625 22.589844 -25.363281 22.214844 -25.25 C 21.753906 -25.117188 21.386719 -24.859375 21.109375 -24.488281 C 21 -24.335938 20.933594 -24.179688 20.90625 -24.011719 C 20.859375 -23.671875 20.902344 -23.359375 21.035156 -23.082031 C 21.136719 -22.863281 21.265625 -22.679688 21.421875 -22.53125 C 21.492188 -22.460938 21.523438 -22.429688 21.519531 -22.433594 C 20.941406 -22.753906 20.230469 -23.003906 19.398438 -23.179688 C 18.421875 -23.386719 17.496094 -23.488281 16.625 -23.488281 C 14.902344 -23.488281 13.394531 -23.25 12.097656 -22.777344 C 10.925781 -22.347656 9.949219 -21.746094 9.171875 -20.972656 C 8.386719 -20.199219 7.785156 -19.257812 7.363281 -18.144531 C 6.902344 -16.929688 6.671875 -15.539062 6.671875 -13.972656 C 6.671875 -11.890625 7.0625 -10.128906 7.84375 -8.683594 C 8.558594 -7.371094 9.59375 -6.351562 10.957031 -5.621094 C 12.460938 -4.816406 14.347656 -4.414062 16.625 -4.414062 Z M 16.625 -4.414062 "/></g></g></g><g fill="#ffffff" fill-opacity="1"><g transform="translate(207.696339, 119.750842)"><g><path d="M 3.839844 5.207031 C 2.011719 5.207031 0.410156 4.726562 -0.972656 3.773438 C -1.777344 3.21875 -2.4375 2.542969 -2.957031 1.742188 C -3.46875 0.953125 -3.820312 0.0820312 -4.007812 -0.867188 C -4.332031 -2.53125 -4.109375 -4.25 -3.335938 -6.019531 L -3.3125 -6.070312 L 6.566406 -27.335938 C 7.414062 -29.171875 8.558594 -30.578125 10 -31.558594 C 11.523438 -32.59375 13.226562 -33.109375 15.121094 -33.109375 C 17.042969 -33.109375 18.757812 -32.574219 20.269531 -31.507812 C 21.621094 -30.554688 22.730469 -29.191406 23.59375 -27.414062 L 33.488281 -6.121094 L 29.089844 -4.078125 L 33.429688 -6.246094 C 34.324219 -4.449219 34.625 -2.6875 34.324219 -0.953125 C 34.15625 0.0117188 33.824219 0.898438 33.320312 1.699219 C 32.796875 2.539062 32.121094 3.238281 31.292969 3.808594 C 29.925781 4.738281 28.347656 5.207031 26.558594 5.207031 C 24.328125 5.207031 22.480469 4.589844 21.011719 3.363281 C 19.847656 2.386719 18.890625 1.015625 18.136719 -0.753906 L 9.132812 -21.933594 L 38.125 -0.808594 L -8.136719 -0.808594 L 20.980469 -21.722656 L 12.0625 -0.753906 C 11.296875 0.945312 10.433594 2.25 9.46875 3.164062 C 8.035156 4.523438 6.15625 5.207031 3.839844 5.207031 Z M 3.839844 -4.492188 C 3.882812 -4.492188 3.914062 -4.492188 3.925781 -4.496094 C 3.878906 -4.488281 3.816406 -4.476562 3.746094 -4.453125 C 3.410156 -4.347656 3.09375 -4.15625 2.800781 -3.875 C 2.761719 -3.839844 2.734375 -3.8125 2.71875 -3.792969 C 2.734375 -3.8125 2.757812 -3.847656 2.789062 -3.894531 C 2.90625 -4.078125 3.023438 -4.296875 3.136719 -4.550781 L 5.273438 -9.574219 L 9.738281 -7.679688 L 12.566406 -3.738281 L 9.753906 -1.722656 L 6.925781 -5.660156 L 6.925781 -10.507812 L 23.234375 -10.507812 L 23.234375 -5.660156 L 20.378906 -1.742188 L 17.605469 -3.757812 L 20.460938 -7.679688 L 24.925781 -9.574219 L 27.0625 -4.546875 C 27.171875 -4.296875 27.269531 -4.101562 27.359375 -3.96875 C 27.367188 -3.953125 27.375 -3.941406 27.382812 -3.933594 C 27.378906 -3.933594 27.378906 -3.9375 27.375 -3.945312 C 27.339844 -3.984375 27.292969 -4.027344 27.238281 -4.074219 C 27 -4.269531 26.761719 -4.40625 26.519531 -4.476562 C 26.476562 -4.488281 26.445312 -4.496094 26.425781 -4.5 C 26.453125 -4.496094 26.5 -4.492188 26.558594 -4.492188 C 26.515625 -4.492188 26.445312 -4.480469 26.355469 -4.457031 C 26.171875 -4.40625 25.992188 -4.320312 25.820312 -4.203125 C 25.53125 -4.003906 25.292969 -3.75 25.097656 -3.441406 C 24.925781 -3.167969 24.816406 -2.890625 24.765625 -2.609375 C 24.722656 -2.359375 24.722656 -2.132812 24.765625 -1.925781 C 24.773438 -1.882812 24.78125 -1.851562 24.789062 -1.828125 C 24.78125 -1.847656 24.769531 -1.871094 24.753906 -1.90625 L 24.722656 -1.96875 L 14.875 -23.167969 C 14.773438 -23.375 14.679688 -23.535156 14.597656 -23.644531 C 14.589844 -23.652344 14.582031 -23.664062 14.574219 -23.667969 L 14.578125 -23.664062 C 14.605469 -23.640625 14.636719 -23.613281 14.675781 -23.585938 C 14.769531 -23.519531 14.867188 -23.472656 14.976562 -23.441406 C 15.042969 -23.421875 15.089844 -23.410156 15.121094 -23.410156 C 15.214844 -23.410156 15.328125 -23.453125 15.449219 -23.535156 C 15.519531 -23.582031 15.5625 -23.617188 15.582031 -23.644531 C 15.519531 -23.5625 15.445312 -23.429688 15.363281 -23.25 L 5.507812 -2.035156 L 1.109375 -4.078125 L 5.550781 -2.132812 C 5.535156 -2.09375 5.523438 -2.066406 5.515625 -2.046875 C 5.523438 -2.0625 5.527344 -2.089844 5.535156 -2.125 C 5.5625 -2.308594 5.554688 -2.511719 5.511719 -2.734375 C 5.457031 -3.011719 5.34375 -3.28125 5.175781 -3.542969 C 4.996094 -3.816406 4.785156 -4.035156 4.535156 -4.207031 C 4.367188 -4.324219 4.191406 -4.410156 4.015625 -4.457031 C 3.929688 -4.480469 3.871094 -4.492188 3.839844 -4.492188 Z M 19.511719 -18.429688 L 11.164062 1.507812 L 0.898438 -16.089844 L 29.300781 -16.089844 L 19.054688 1.476562 L 10.652344 -18.417969 L 15.121094 -20.304688 L 15.121094 -15.453125 L 15.039062 -15.453125 L 15.039062 -20.304688 Z M 11.8125 -25.152344 L 18.335938 -25.152344 L 24.21875 -11.226562 L 19.75 -9.339844 L 15.5625 -11.785156 L 16.667969 -13.683594 L 20.859375 -11.242188 L 20.859375 -6.390625 L 9.339844 -6.390625 L 9.339844 -11.242188 L 13.53125 -13.683594 L 14.636719 -11.785156 L 10.449219 -9.339844 L 5.976562 -11.214844 L 10.566406 -22.175781 Z M 11.8125 -25.152344 "/></g></g></g><g fill="#ffffff" fill-opacity="1"><g transform="translate(235.71629, 119.750842)"><g><path d="M 6.214844 4.847656 C 5.074219 4.847656 4.011719 4.675781 3.03125 4.324219 C 1.898438 3.917969 0.910156 3.296875 0.0742188 2.460938 C -0.761719 1.621094 -1.382812 0.636719 -1.789062 -0.5 C -2.140625 -1.480469 -2.316406 -2.539062 -2.316406 -3.679688 L -2.316406 -24.261719 C -2.316406 -25.402344 -2.148438 -26.457031 -1.808594 -27.429688 C -1.40625 -28.582031 -0.785156 -29.582031 0.0546875 -30.421875 C 0.890625 -31.257812 1.875 -31.875 3.015625 -32.277344 C 3.988281 -32.621094 5.039062 -32.792969 6.175781 -32.792969 C 7.316406 -32.792969 8.375 -32.621094 9.347656 -32.28125 C 10.511719 -31.875 11.511719 -31.242188 12.351562 -30.386719 C 13.175781 -29.542969 13.78125 -28.550781 14.171875 -27.398438 C 14.5 -26.4375 14.664062 -25.390625 14.664062 -24.261719 L 14.664062 -6.054688 L 9.816406 -6.054688 L 9.816406 -10.90625 L 19.472656 -10.90625 C 20.5 -10.90625 21.453125 -10.757812 22.335938 -10.464844 C 23.40625 -10.105469 24.339844 -9.550781 25.128906 -8.796875 C 25.953125 -8.015625 26.5625 -7.082031 26.957031 -5.992188 C 27.285156 -5.085938 27.449219 -4.105469 27.449219 -3.046875 C 27.449219 -1.996094 27.285156 -1.015625 26.960938 -0.109375 C 26.574219 0.964844 25.976562 1.894531 25.175781 2.679688 C 24.382812 3.453125 23.449219 4.023438 22.371094 4.390625 C 21.476562 4.695312 20.511719 4.847656 19.472656 4.847656 Z M 6.214844 -4.847656 L 19.472656 -4.847656 L 19.46875 -4.847656 C 19.398438 -4.835938 19.320312 -4.816406 19.234375 -4.785156 C 18.929688 -4.683594 18.652344 -4.507812 18.402344 -4.261719 C 18.140625 -4.007812 17.949219 -3.71875 17.832031 -3.390625 C 17.777344 -3.238281 17.75 -3.125 17.75 -3.046875 C 17.75 -2.96875 17.78125 -2.847656 17.839844 -2.683594 C 17.960938 -2.34375 18.164062 -2.039062 18.445312 -1.769531 C 18.699219 -1.53125 18.972656 -1.363281 19.269531 -1.261719 C 19.351562 -1.234375 19.421875 -1.21875 19.484375 -1.207031 C 19.496094 -1.207031 19.503906 -1.207031 19.507812 -1.207031 C 19.5 -1.207031 19.488281 -1.207031 19.472656 -1.207031 L 4.964844 -1.207031 L 4.964844 -24.261719 C 4.964844 -24.320312 4.964844 -24.363281 4.960938 -24.390625 C 4.964844 -24.363281 4.976562 -24.324219 4.992188 -24.273438 C 5.074219 -24.03125 5.21875 -23.808594 5.421875 -23.601562 C 5.640625 -23.378906 5.878906 -23.21875 6.140625 -23.128906 C 6.199219 -23.109375 6.246094 -23.09375 6.285156 -23.089844 C 6.265625 -23.09375 6.226562 -23.09375 6.175781 -23.09375 C 6.132812 -23.09375 6.101562 -23.09375 6.089844 -23.089844 C 6.132812 -23.097656 6.183594 -23.109375 6.246094 -23.132812 C 6.488281 -23.21875 6.710938 -23.363281 6.910156 -23.5625 C 7.121094 -23.769531 7.265625 -23.996094 7.351562 -24.242188 C 7.371094 -24.296875 7.382812 -24.34375 7.386719 -24.375 C 7.382812 -24.355469 7.382812 -24.316406 7.382812 -24.261719 L 7.382812 -3.679688 C 7.382812 -3.640625 7.382812 -3.617188 7.386719 -3.609375 C 7.378906 -3.652344 7.363281 -3.703125 7.339844 -3.765625 C 7.257812 -3.996094 7.121094 -4.207031 6.933594 -4.398438 C 6.742188 -4.589844 6.53125 -4.726562 6.296875 -4.808594 C 6.238281 -4.832031 6.183594 -4.84375 6.140625 -4.851562 C 6.152344 -4.851562 6.175781 -4.847656 6.214844 -4.847656 Z M 6.214844 -4.847656 "/></g></g></g><g clip-path="url(#57c7402ac5)"><g transform="matrix(1, 0, 0, 1, 0, 0)"><g clip-path="url(#24b5f784ad)"><g clip-path="url(#174d621670)"><g mask="url(#5186caf5eb)"><g transform="matrix(1, 0, 0, 1, 0, 0)"><g clip-path="url(#592c488939)"><g clip-path="url(#2824ffeba4)"><path fill="url(#ba9aacd41b)" d="M 9.847656 0.410156 L 9.847656 213.261719 L 336.707031 213.261719 L 336.707031 0.410156 Z M 9.847656 0.410156 " fill-rule="nonzero"/></g></g></g></g></g></g></g></g></g></g></svg>